<svg 
 xmlns="http://www.w3.org/2000/svg"
 xmlns:xlink="http://www.w3.org/1999/xlink"
 width="64px" height="60px">
<path fill-rule="evenodd"  fill="rgb(35, 68, 97)"
 d="M51.967,58.523 L48.555,38.230 L63.429,23.745 C63.959,23.235 63.610,22.172 62.877,22.064 L42.235,18.975 L32.854,0.560 C32.530,-0.107 31.372,-0.107 31.048,0.560 L21.668,18.975 L1.025,22.064 C0.293,22.172 -0.056,23.235 0.473,23.745 L15.347,38.230 L11.936,58.523 C11.810,59.245 12.734,59.904 13.390,59.561 L31.951,50.094 L50.512,59.561 C51.417,59.900 52.001,59.246 51.967,58.523 ZM49.659,56.892 L32.403,48.117 C32.124,47.978 31.778,47.978 31.500,48.117 L14.243,56.892 L17.404,38.032 C17.452,37.719 17.336,37.385 17.103,37.167 L3.307,23.720 L22.495,20.828 C22.811,20.787 23.100,20.587 23.248,20.309 L31.951,3.229 L40.655,20.309 C40.803,20.587 41.092,20.787 41.407,20.828 L60.595,23.720 L46.800,37.167 C46.566,37.385 46.450,37.719 46.499,38.032 L49.659,56.892 Z"/>
</svg>