<svg 
 xmlns="http://www.w3.org/2000/svg"
 xmlns:xlink="http://www.w3.org/1999/xlink"
 width="59px" height="59px">
<path fill-rule="evenodd"  fill="rgb(35, 68, 97)"
 d="M52.908,47.482 C52.646,47.809 52.319,47.940 51.992,47.940 C51.796,47.940 51.534,47.809 51.338,47.678 C50.880,47.286 50.749,46.566 51.142,46.109 C54.805,41.270 56.767,35.581 56.767,29.500 C56.767,23.615 54.936,18.056 51.469,13.348 C51.142,12.825 51.207,12.171 51.730,11.779 C52.254,11.452 52.908,11.517 53.300,12.040 C57.029,17.141 59.057,23.157 58.991,29.500 C58.991,36.104 56.898,42.316 52.908,47.482 ZM41.396,21.195 C41.919,20.868 42.573,20.933 42.965,21.456 C44.535,23.615 45.386,26.165 45.386,28.846 C45.386,31.657 44.470,34.273 42.769,36.496 C42.508,36.823 42.181,36.954 41.854,36.954 C41.657,36.954 41.396,36.823 41.199,36.692 C40.676,36.300 40.611,35.581 41.069,35.123 C42.442,33.292 43.162,31.134 43.162,28.846 C43.162,26.622 42.442,24.530 41.134,22.764 C40.807,22.241 40.872,21.587 41.396,21.195 ZM46.498,16.487 C47.021,16.160 47.675,16.225 48.067,16.749 C50.749,20.410 52.188,24.791 52.188,29.369 C52.188,34.077 50.684,38.589 47.806,42.316 C47.544,42.643 47.217,42.774 46.890,42.774 C46.694,42.774 46.432,42.643 46.236,42.512 C45.778,42.120 45.647,41.401 46.040,40.943 C48.591,37.608 49.964,33.619 49.964,29.369 C49.964,25.249 48.656,21.326 46.236,18.056 C45.909,17.533 45.974,16.879 46.498,16.487 ZM48.525,9.948 C43.358,4.978 36.621,2.232 29.491,2.232 C14.446,2.232 2.215,14.460 2.215,29.500 C2.215,44.539 14.446,56.767 29.491,56.767 C36.555,56.767 43.227,54.087 48.329,49.248 C48.787,48.790 49.507,48.855 49.899,49.248 C50.292,49.705 50.292,50.359 49.834,50.817 C44.339,56.114 37.144,58.991 29.491,58.991 C13.269,58.991 -0.009,45.782 -0.009,29.500 C-0.009,13.217 13.269,0.009 29.491,0.009 C37.275,0.009 44.535,2.951 50.095,8.379 C50.488,8.771 50.553,9.490 50.095,9.948 C49.703,10.340 48.983,10.406 48.525,9.948 Z"/>
</svg>