<svg 
 xmlns="http://www.w3.org/2000/svg"
 xmlns:xlink="http://www.w3.org/1999/xlink"
 width="54px" height="55px">
<path fill-rule="evenodd"  fill="rgb(35, 68, 97)"
 d="M27.031,0.001 C26.899,-0.000 26.768,0.019 26.643,0.059 L1.105,8.140 C0.911,8.171 0.724,8.247 0.564,8.362 C0.348,8.505 0.178,8.716 0.086,8.958 C-0.006,9.199 -0.021,9.470 0.044,9.719 L0.044,45.621 C0.044,45.885 0.131,46.147 0.287,46.360 C0.443,46.572 0.668,46.733 0.920,46.812 L26.483,54.879 C26.622,54.943 26.774,54.981 26.927,54.990 C27.080,55.000 27.235,54.982 27.381,54.936 C27.383,54.935 27.385,54.936 27.388,54.936 C27.392,54.936 27.396,54.936 27.401,54.929 L53.125,46.812 C53.377,46.733 53.602,46.571 53.758,46.359 C53.914,46.147 54.000,45.884 54.000,45.621 L54.000,9.373 C54.000,9.361 54.000,9.348 53.999,9.337 C53.999,9.330 53.998,9.323 53.998,9.317 C53.994,9.173 53.964,9.029 53.910,8.894 C53.856,8.760 53.779,8.635 53.683,8.527 C53.586,8.419 53.471,8.327 53.343,8.258 C53.215,8.189 53.076,8.143 52.932,8.121 L27.401,0.058 C27.282,0.020 27.156,0.001 27.031,-0.000 L27.031,0.001 ZM27.022,2.561 L35.729,5.310 L14.154,12.122 L5.473,9.381 L27.022,2.561 ZM39.880,6.622 L48.599,9.375 L27.049,16.195 L18.305,13.433 L39.880,6.622 ZM2.553,11.080 L12.892,14.346 L12.790,23.104 C12.786,23.269 12.815,23.434 12.876,23.588 C12.936,23.742 13.027,23.883 13.142,24.002 C13.256,24.121 13.395,24.217 13.547,24.282 C13.699,24.347 13.864,24.382 14.030,24.384 C14.196,24.386 14.361,24.355 14.515,24.293 C14.668,24.231 14.809,24.139 14.927,24.023 C15.045,23.907 15.139,23.767 15.203,23.615 C15.266,23.463 15.299,23.298 15.299,23.133 L15.392,15.135 L25.768,18.412 L25.768,52.032 L2.553,44.706 L2.553,11.080 ZM51.492,11.082 L51.492,44.707 L28.276,52.032 L28.276,18.428 L51.492,11.082 Z"/>
</svg>