<svg 
 xmlns="http://www.w3.org/2000/svg"
 xmlns:xlink="http://www.w3.org/1999/xlink"
 width="69px" height="69px">
<path fill-rule="evenodd"  fill="rgb(35, 68, 97)"
 d="M26.087,0.013 C25.917,0.013 25.750,0.057 25.600,0.137 L0.530,13.609 C0.248,13.759 0.053,14.036 0.007,14.351 C-0.040,14.664 0.067,14.984 0.292,15.209 L7.926,22.842 L0.291,30.473 C0.065,30.699 -0.041,31.017 0.006,31.332 C0.053,31.647 0.246,31.922 0.529,32.074 L8.344,36.274 L8.344,54.507 C8.344,54.542 8.345,54.577 8.349,54.612 C8.350,54.627 8.354,54.641 8.356,54.655 C8.358,54.672 8.360,54.690 8.365,54.708 C8.369,54.729 8.374,54.751 8.381,54.772 C8.384,54.782 8.385,54.792 8.388,54.802 C8.395,54.824 8.404,54.846 8.411,54.866 C8.414,54.876 8.418,54.886 8.422,54.894 C8.430,54.913 8.439,54.932 8.448,54.949 C8.454,54.961 8.459,54.972 8.464,54.983 C8.473,54.998 8.482,55.013 8.491,55.028 C8.499,55.043 8.507,55.056 8.516,55.070 C8.523,55.080 8.532,55.091 8.539,55.102 C8.551,55.118 8.562,55.133 8.575,55.150 C8.582,55.158 8.590,55.166 8.597,55.174 C8.611,55.191 8.626,55.206 8.642,55.223 C8.649,55.230 8.659,55.238 8.667,55.247 C8.682,55.261 8.697,55.276 8.713,55.288 C8.730,55.302 8.746,55.313 8.762,55.325 C8.772,55.333 8.782,55.340 8.792,55.347 C8.821,55.366 8.851,55.385 8.883,55.402 L34.012,68.869 C34.048,68.889 34.086,68.906 34.125,68.921 C34.134,68.925 34.143,68.928 34.150,68.931 C34.179,68.942 34.207,68.950 34.237,68.958 C34.248,68.961 34.258,68.963 34.269,68.966 C34.297,68.973 34.327,68.978 34.356,68.983 C34.366,68.984 34.375,68.986 34.386,68.987 C34.424,68.991 34.463,68.995 34.503,68.995 C34.542,68.995 34.581,68.991 34.619,68.987 C34.629,68.986 34.639,68.984 34.649,68.983 C34.679,68.978 34.708,68.973 34.736,68.966 C34.747,68.964 34.757,68.961 34.768,68.958 C34.797,68.950 34.827,68.940 34.855,68.931 C34.864,68.928 34.872,68.925 34.880,68.921 C34.918,68.906 34.956,68.889 34.992,68.869 L60.121,55.402 C60.153,55.385 60.183,55.367 60.213,55.347 C60.222,55.340 60.232,55.332 60.242,55.325 C60.258,55.313 60.276,55.302 60.291,55.288 C60.306,55.276 60.322,55.261 60.338,55.247 C60.346,55.239 60.355,55.232 60.363,55.223 C60.378,55.208 60.393,55.191 60.407,55.174 C60.415,55.166 60.422,55.158 60.429,55.150 C60.441,55.134 60.453,55.118 60.465,55.102 C60.472,55.091 60.481,55.080 60.489,55.070 C60.497,55.056 60.506,55.042 60.514,55.028 C60.521,55.014 60.531,54.998 60.540,54.983 C60.545,54.973 60.551,54.961 60.556,54.949 C60.565,54.931 60.575,54.913 60.582,54.894 C60.586,54.884 60.589,54.875 60.593,54.866 C60.601,54.845 60.609,54.824 60.616,54.802 C60.619,54.793 60.621,54.783 60.623,54.772 C60.629,54.751 60.635,54.729 60.640,54.708 C60.643,54.690 60.645,54.673 60.648,54.655 C60.651,54.640 60.654,54.626 60.655,54.612 C60.658,54.577 60.660,54.543 60.660,54.507 L60.660,36.274 L68.475,32.075 C68.757,31.924 68.952,31.646 68.998,31.333 C69.044,31.019 68.938,30.699 68.714,30.473 L61.079,22.842 L68.714,15.210 C68.940,14.984 69.046,14.666 68.999,14.351 C68.952,14.036 68.759,13.762 68.476,13.609 L43.407,0.137 C43.010,-0.076 42.520,-0.005 42.200,0.311 L34.504,7.942 L26.808,0.312 C26.617,0.122 26.360,0.015 26.090,0.015 L26.087,0.013 ZM25.902,2.273 L32.814,9.126 L9.550,21.592 L2.697,14.742 L25.902,2.273 ZM43.100,2.273 L66.305,14.742 L59.452,21.592 L36.189,9.125 L43.100,2.273 ZM34.503,10.519 L57.495,22.840 L34.503,35.162 L11.510,22.840 L34.503,10.519 ZM59.453,24.087 L66.307,30.938 L59.161,34.778 C59.156,34.781 59.150,34.783 59.145,34.786 L43.101,43.407 L36.189,36.556 L59.453,24.087 ZM9.550,24.087 L32.813,36.555 L25.902,43.407 L9.854,34.783 C9.850,34.781 9.848,34.780 9.845,34.779 L2.697,30.938 L9.550,24.087 ZM10.383,37.366 L25.600,45.544 C25.753,45.626 25.919,45.665 26.085,45.665 C26.349,45.665 26.610,45.564 26.805,45.370 L33.482,38.750 L33.482,66.285 L10.382,53.905 L10.383,37.366 ZM58.620,37.366 L58.620,53.905 L35.521,66.284 L35.521,38.748 L42.198,45.369 C42.391,45.561 42.647,45.665 42.919,45.665 C43.087,45.665 43.254,45.622 43.403,45.542 L58.620,37.366 Z"/>
</svg>